<!DOCTYPE svg PUBLIC "-//W3C//DTD SVG 20010904//EN" "http://www.w3.org/TR/2001/REC-SVG-20010904/DTD/svg10.dtd">
<svg version="1.0" xmlns="http://www.w3.org/2000/svg" width="226px" height="192px" viewBox="0 0 2260 1920" preserveAspectRatio="xMidYMid meet">
<g id="layer101" fill="#4df41a" stroke="none">
 <path d="M267 978 c-203 -349 -223 -412 -144 -455 29 -16 60 -18 306 -16 150 1 275 4 278 7 3 3 -328 609 -342 624 -1 2 -45 -70 -98 -160z"/>
 </g>
<g id="layer102" fill="#f4501a" stroke="none">
 <path d="M1712 828 c-94 -171 -170 -313 -169 -315 2 -2 130 -4 283 -6 247 -2 283 0 310 15 52 28 57 67 21 156 -28 67 -250 455 -263 459 -5 1 -87 -138 -182 -309z"/>
 </g>
<g id="layer103" fill="#ffa114" stroke="none">
 <path d="M525 1855 c-151 -33 -337 -115 -381 -167 -47 -57 -32 -112 86 -313 42 -71 179 -314 304 -540 126 -225 257 -454 293 -509 176 -270 318 -313 482 -149 81 82 142 180 372 593 111 201 206 367 211 368 4 2 8 9 8 16 0 7 43 86 96 177 119 203 134 233 134 286 0 80 -78 135 -300 209 -104 34 -125 38 -225 38 -94 1 -116 -2 -150 -21 -83 -44 -117 -108 -117 -219 0 -150 82 -326 220 -468 27 -28 54 -61 61 -73 15 -28 0 -67 -34 -89 -32 -21 -40 -17 -160 76 -115 90 -169 111 -291 111 -147 0 -197 -20 -350 -141 -41 -33 -81 -60 -88 -60 -7 0 -25 9 -40 21 -44 35 -36 70 35 147 122 135 194 272 219 414 26 146 -36 264 -155 297 -53 14 -155 13 -230 -4z m711 -830 c128 -75 131 -261 6 -349 -60 -42 -148 -48 -212 -14 -65 35 -103 93 -108 167 -5 76 9 118 57 165 72 71 169 82 257 31z"/>
 </g>

</svg>